<svg id="SVGDoc" width="10" height="12" xmlns="http://www.w3.org/2000/svg" version="1.1" xmlns:xlink="http://www.w3.org/1999/xlink" xmlns:avocode="https://avocode.com/" viewBox="0 0 10 12"><defs><path d="M691.98666,51.98272v-1.98272h-1.98666v-2h1.98666v-1h-1.98666v-2h1.98666v-4.98269h4.57106c0.49599,0 0.95416,0.11535 1.37437,0.34555c0.42005,0.23045 0.78214,0.53372 1.08589,0.91007c0.30367,0.37647 0.54147,0.8034 0.71372,1.28079c0.17202,0.47764 0.25818,-0.04203 0.25818,0.44086c0,0.50562 -0.08113,0.99719 -0.243,1.47458c-0.16202,0.47776 -0.38983,0.90164 -0.68335,1.27248c-0.29383,0.37072 -0.64809,0.6685 -1.06311,0.89308c-0.41525,0.22495 -0.87087,0.33712 -1.36678,0.33712h-2.55131v1.02815h3.91765v2h-3.91765v1.98272zM694.08235,44.93263h2.42981c0.38464,0 0.70621,-0.174 0.96439,-0.52236c0.25811,-0.34812 0.3872,-0.82001 0.3872,-1.41569c0,-0.30327 -0.04053,-0.57563 -0.12142,-0.81733c-0.08121,-0.24145 -0.18752,0.5534 -0.31893,0.3849c-0.13173,-0.1685 -0.28616,-0.29497 -0.46321,-0.37915c-0.17729,-0.08431 -0.3569,-0.12647 -0.53915,-0.12647h-2.33868z" id="Path-0"/></defs><desc>Generated with Avocode.</desc><g transform="matrix(1,0,0,1,-690,-40)"><g><title>ла</title><use xlink:href="#Path-0" fill="#33c7fd" fill-opacity="1"/></g></g></svg>