<svg id="SVGDoc" width="10" height="12" xmlns="http://www.w3.org/2000/svg" version="1.1" xmlns:xlink="http://www.w3.org/1999/xlink" xmlns:avocode="https://avocode.com/" viewBox="0 0 10 12"><defs><path d="M503,50.99995l-1.00003,-1v-2c0,0 0.14335,-1.97874 3.00003,-2c0,0 1.68726,2.3128 3.99998,0c0,0 3.00003,0.09604 3.00003,2c0,1.90408 0,2 0,2l-1.00003,1zM506.99998,38.99996c1.65688,0 3.00003,1.34323 3.00003,3c0,1.65689 -1.34314,3 -3.00003,3c-1.65681,0 -2.99995,-1.34311 -2.99995,-3c0,-1.65677 1.34314,-3 2.99995,-3z" id="Path-0"/></defs><desc>Generated with Avocode.</desc><g transform="matrix(1,0,0,1,-502,-39)"><g><title>user</title><use xlink:href="#Path-0" fill="#33c7fd" fill-opacity="1"/></g></g></svg>